<svg width="20" height="20" viewBox="0 0 20 20" fill="none" xmlns="http://www.w3.org/2000/svg">
<path d="M5 14.1666H3.33333C2.8731 14.1666 2.5 13.7935 2.5 13.3333L2.5 6.66659C2.5 6.20635 2.8731 5.83325 3.33333 5.83325L16.6667 5.83325C17.1269 5.83325 17.5 6.20635 17.5 6.66659V13.3333C17.5 13.7935 17.1269 14.1666 16.6667 14.1666H15" stroke="white" stroke-width="1.66667" stroke-linecap="round" stroke-linejoin="round"/>
<path d="M5.83333 17.5L14.1667 17.5C14.6269 17.5 15 17.1269 15 16.6667V13.3333C15 12.8731 14.6269 12.5 14.1667 12.5L5.83333 12.5C5.3731 12.5 5 12.8731 5 13.3333L5 16.6667C5 17.1269 5.3731 17.5 5.83333 17.5Z" stroke="white" stroke-width="1.66667" stroke-linecap="round" stroke-linejoin="round"/>
<path d="M8.33337 9.16675H11.6667" stroke="white" stroke-width="1.66667" stroke-linecap="round" stroke-linejoin="round"/>
<path d="M5.83333 5.83333L14.1667 5.83333C14.6269 5.83333 15 5.46024 15 5V3.33333C15 2.8731 14.6269 2.5 14.1667 2.5L5.83333 2.5C5.3731 2.5 5 2.8731 5 3.33333L5 5C5 5.46024 5.3731 5.83333 5.83333 5.83333Z" stroke="white" stroke-width="1.66667" stroke-linecap="round" stroke-linejoin="round"/>
</svg>
