<svg width="16" height="17" viewBox="0 0 16 17" fill="none" xmlns="http://www.w3.org/2000/svg">
<path fill-rule="evenodd" clip-rule="evenodd" d="M8 17C9.10417 17 10.1432 16.7786 11.1172 16.3359C12.0911 15.8932 12.9401 15.2873 13.6641 14.5181C14.388 13.7489 14.9583 12.8468 15.375 11.812C15.7917 10.7772 16 9.67318 16 8.5C16 7.32682 15.7917 6.22282 15.375 5.18799C14.9583 4.15316 14.388 3.25114 13.6641 2.48193C12.9401 1.71273 12.0911 1.10677 11.1172 0.664063C10.1432 0.221354 9.10417 0 8 0C6.89583 0 5.85677 0.221354 4.88281 0.664063C3.90885 1.10677 3.0599 1.71273 2.33594 2.48193C1.61198 3.25114 1.04167 4.15316 0.625 5.18799C0.208333 6.22282 0 7.32682 0 8.5C0 9.67318 0.208333 10.7772 0.625 11.812C1.04167 12.8468 1.61198 13.7489 2.33594 14.5181C3.0599 15.2873 3.90885 15.8932 4.88281 16.3359C5.85677 16.7786 6.89583 17 8 17ZM8 15.9541C7.03125 15.9541 6.1224 15.7576 5.27344 15.3647C4.42448 14.9718 3.6849 14.4378 3.05469 13.7627C2.42448 13.0876 1.92448 12.299 1.55469 11.397C1.1849 10.495 1 9.5293 1 8.5C1 7.4707 1.1849 6.50505 1.55469 5.60303C1.92448 4.70101 2.42448 3.9152 3.05469 3.24561C3.6849 2.57601 4.42448 2.04476 5.27344 1.65186C6.1224 1.25895 7.03125 1.0625 8 1.0625C8.96875 1.0625 9.8776 1.25895 10.7266 1.65186C11.5755 2.04476 12.3151 2.57601 12.9453 3.24561C13.5755 3.9152 14.0755 4.70101 14.4453 5.60303C14.8151 6.50505 15 7.4707 15 8.5C15 9.5293 14.8151 10.495 14.4453 11.397C14.0755 12.299 13.5755 13.0876 12.9453 13.7627C12.3151 14.4378 11.5755 14.9718 10.7266 15.3647C9.8776 15.7576 8.96875 15.9541 8 15.9541ZM4.64047 12.6254C4.60922 12.631 4.57276 12.6337 4.53109 12.6337C4.46859 12.6337 4.4087 12.6199 4.35141 12.5922C4.29411 12.5646 4.24463 12.5286 4.20297 12.4843C4.13005 12.4069 4.08578 12.3155 4.07016 12.2104C4.05453 12.1053 4.06755 12.0029 4.10922 11.9033L6.35922 7.10542C6.38005 7.06115 6.4087 7.01965 6.44516 6.98091C6.48161 6.94218 6.52068 6.91174 6.56234 6.8896L11.453 4.64839C11.5467 4.60412 11.6457 4.59029 11.7498 4.60689C11.854 4.62349 11.9426 4.67053 12.0155 4.748C12.078 4.82548 12.117 4.91955 12.1327 5.03023C12.1483 5.14091 12.1301 5.24605 12.078 5.34566L9.71859 10.2763C9.69776 10.3206 9.66911 10.3593 9.63266 10.3925C9.5962 10.4257 9.55713 10.4534 9.51547 10.4755L4.73422 12.5839C4.70297 12.6061 4.67172 12.6199 4.64047 12.6254ZM9.14074 9.29688L7.75011 7.4375L10.5157 6.29199L9.14074 9.29688ZM6.95312 8.08496L5.59375 11.04L8.32812 9.91113L6.95312 8.08496Z" fill="#FD7972"/>
</svg>
