<svg width="20" height="20" viewBox="0 0 20 20" fill="none" xmlns="http://www.w3.org/2000/svg">
<circle cx="10" cy="10" r="10" fill="#FD7972"/>
<path d="M14.2064 12.1306C13.9264 11.881 13.6812 11.5949 13.4775 11.2799C13.2552 10.8451 13.1219 10.3702 13.0855 9.88321V8.44881C13.0875 7.68387 12.81 6.94457 12.3053 6.36979C11.8005 5.79501 11.1033 5.42433 10.3445 5.32739V4.95282C10.3445 4.85001 10.3037 4.75142 10.231 4.67872C10.1583 4.60603 10.0597 4.56519 9.95687 4.56519C9.85406 4.56519 9.75547 4.60603 9.68277 4.67872C9.61007 4.75142 9.56924 4.85001 9.56924 4.95282V5.3332C8.81727 5.43713 8.12844 5.81005 7.63034 6.3829C7.13223 6.95574 6.85861 7.68969 6.86014 8.44881V9.88321C6.82377 10.3702 6.6905 10.8451 6.46815 11.2799C6.26805 11.5941 6.02685 11.8803 5.75095 12.1306C5.71997 12.1578 5.69515 12.1913 5.67813 12.2289C5.6611 12.2664 5.65227 12.3072 5.65222 12.3484V12.7433C5.65222 12.8203 5.68281 12.8942 5.73727 12.9486C5.79172 13.0031 5.86558 13.0337 5.94259 13.0337H14.0147C14.0917 13.0337 14.1656 13.0031 14.22 12.9486C14.2745 12.8942 14.3051 12.8203 14.3051 12.7433V12.3484C14.305 12.3072 14.2962 12.2664 14.2792 12.2289C14.2621 12.1913 14.2373 12.1578 14.2064 12.1306ZM6.25618 12.4529C6.52634 12.192 6.7642 11.8995 6.96467 11.5818C7.24476 11.0567 7.40818 10.4773 7.44377 9.88321V8.44881C7.43225 8.10851 7.48933 7.76938 7.61161 7.4516C7.73389 7.13382 7.91887 6.8439 8.15552 6.5991C8.39218 6.3543 8.67568 6.15962 8.98914 6.02667C9.3026 5.89371 9.63961 5.82519 9.9801 5.82519C10.3206 5.82519 10.6576 5.89371 10.9711 6.02667C11.2845 6.15962 11.568 6.3543 11.8047 6.5991C12.0413 6.8439 12.2263 7.13382 12.3486 7.4516C12.4709 7.76938 12.5279 8.10851 12.5164 8.44881V9.88321C12.552 10.4773 12.7154 11.0567 12.9955 11.5818C13.196 11.8995 13.4339 12.192 13.704 12.4529H6.25618Z" fill="white"/>
<path d="M9.99253 14.0036C10.1754 13.9994 10.351 13.9306 10.4881 13.8095C10.6252 13.6883 10.715 13.5226 10.7417 13.3416H9.21436C9.24179 13.5275 9.33582 13.6971 9.47897 13.8189C9.62211 13.9407 9.80461 14.0063 9.99253 14.0036Z" fill="white"/>
</svg>
