<svg width="220" height="57" viewBox="0 0 220 57" fill="none" xmlns="http://www.w3.org/2000/svg">
<path d="M219.41 56.0419L219.483 54.8067C219.483 54.8039 219.483 54.8039 219.483 54.8039L219.483 54.8039L219.483 54.8038L219.48 54.8035L219.465 54.8016C219.451 54.7999 219.43 54.7972 219.402 54.7934C219.379 54.7902 219.351 54.7864 219.319 54.7817C219.272 54.7751 219.216 54.7669 219.152 54.7569C218.932 54.7231 218.611 54.6693 218.21 54.5904C217.409 54.4324 216.294 54.1742 215.045 53.7742C212.532 52.9696 209.541 51.6122 207.436 49.4018C206.575 48.4979 205.216 46.6546 203.522 44.1539C201.837 41.6667 199.846 38.5664 197.727 35.178C193.489 28.4018 188.75 20.4887 184.946 14.0547C180.317 6.22677 171.924 1.37883 162.825 1.37883H26.8468C12.7812 1.37883 1.37883 12.7812 1.37883 26.8468V55.4207V56.0419H2H219.41Z" fill="#fafafa" stroke="#C9C9C9" stroke-width="1.24234"/>
</svg>
