<svg width="220" height="57" viewBox="0 0 220 57" fill="none" xmlns="http://www.w3.org/2000/svg">
<path d="M2 26.8468C2 13.1243 13.1243 2 26.8468 2H162.825C171.702 2 179.893 6.7296 184.411 14.3708C192.021 27.2421 203.38 46.0439 206.986 49.8302C211.406 54.4711 219.41 55.4207 219.41 55.4207H2V26.8468Z" fill="white"/>
<path d="M219.41 56.0419L219.483 54.8067C219.483 54.8039 219.483 54.8039 219.483 54.8039L219.483 54.8039L219.483 54.8038L219.48 54.8035L219.465 54.8016C219.451 54.7999 219.43 54.7972 219.402 54.7934C219.346 54.7858 219.262 54.7738 219.152 54.7569C218.932 54.7231 218.611 54.6693 218.21 54.5904C217.409 54.4324 216.294 54.1742 215.045 53.7742C212.532 52.9696 209.541 51.6122 207.436 49.4018C206.575 48.4979 205.216 46.6546 203.522 44.1539C201.837 41.6667 199.846 38.5664 197.727 35.178C193.489 28.4018 188.75 20.4887 184.946 14.0547C180.317 6.22677 171.924 1.37883 162.825 1.37883H26.8468C12.7813 1.37883 1.37883 12.7812 1.37883 26.8468V55.4207V56.0419H2H219.41Z" stroke="#C9C9C9" stroke-width="1.24234"/>
</svg>
